<svg width="139" height="141" viewBox="0 0 139 141" fill="none" xmlns="http://www.w3.org/2000/svg">
<g clip-path="url(#clip0_18_217)">
<path d="M69.5 0L83.7458 8.64079L100.365 6.9817L109.417 20.8928L125.116 26.544L127.182 42.9701L138.852 54.8123L133.522 70.5L138.852 86.1875L127.182 98.0298L125.116 114.456L109.417 120.107L100.365 134.018L83.7458 132.359L69.5 141L55.2538 132.359L38.6355 134.018L29.583 120.107L13.8842 114.456L11.8183 98.0298L0.148193 86.1875L5.47821 70.5L0.148193 54.8123L11.8183 42.9701L13.8842 26.544L29.583 20.8928L38.6355 6.9817L55.2538 8.64079L69.5 0Z" fill="#009933"/>
</g>
<defs>
<clipPath id="clip0_18_217">
<rect width="139" height="141" fill="white"/>
</clipPath>
</defs>
</svg>
