<svg width="874" height="660" viewBox="0 0 874 660" fill="none" xmlns="http://www.w3.org/2000/svg">
<rect x="8" width="857.165" height="116.628" rx="58.3142" fill="white"/>
<path d="M332.503 44.6942H322.244V72.3142H318.561V44.6942H308.302V41.2745H332.503V44.6942ZM332.214 56.6628C332.214 55.7276 332.185 54.8507 332.127 54.0324C332.068 53.214 332.039 52.4687 332.039 51.7965H335.283C335.283 52.3518 335.298 52.9071 335.327 53.4624C335.356 54.0178 335.371 54.5877 335.371 55.1722H335.459C335.692 54.6754 336.014 54.1931 336.423 53.7255C336.861 53.2578 337.373 52.8487 337.957 52.4979C338.542 52.118 339.2 51.8257 339.93 51.6211C340.661 51.3873 341.45 51.2704 342.298 51.2704C342.532 51.2704 342.765 51.285 342.999 51.3142C343.233 51.3434 343.467 51.4019 343.701 51.4896L343.481 54.953C342.897 54.7777 342.283 54.69 341.64 54.69C339.536 54.69 338.001 55.3768 337.037 56.7505C336.102 58.095 335.634 59.951 335.634 62.3184V72.3142H332.214V56.6628ZM347.364 54.4269C348.416 53.3455 349.659 52.5564 351.091 52.0595C352.552 51.5334 354.028 51.2704 355.519 51.2704C358.558 51.2704 360.75 51.9864 362.095 53.4186C363.439 54.8507 364.112 57.0282 364.112 59.951V68.7631C364.112 69.3476 364.141 69.9614 364.199 70.6044C364.258 71.2182 364.331 71.7881 364.418 72.3142H361.13C361.013 71.8466 360.94 71.3351 360.911 70.7798C360.911 70.1952 360.911 69.6837 360.911 69.2453H360.823C360.151 70.2975 359.245 71.1597 358.105 71.832C356.995 72.5042 355.65 72.8403 354.072 72.8403C353.02 72.8403 352.026 72.7088 351.091 72.4457C350.185 72.1827 349.381 71.8027 348.679 71.3059C348.007 70.7798 347.466 70.1368 347.057 69.3768C346.648 68.6169 346.444 67.7401 346.444 66.7464C346.444 65.0512 346.882 63.7213 347.759 62.7568C348.636 61.7923 349.717 61.0762 351.003 60.6086C352.318 60.1409 353.721 59.8487 355.212 59.7317C356.732 59.6148 358.12 59.5564 359.377 59.5564H360.692V58.9426C360.692 57.452 360.239 56.3267 359.333 55.5668C358.456 54.8069 357.214 54.4269 355.606 54.4269C354.496 54.4269 353.4 54.6169 352.318 54.9969C351.266 55.3476 350.331 55.9029 349.512 56.6628L347.364 54.4269ZM357.272 62.4499C355.08 62.4499 353.341 62.7568 352.055 63.3706C350.769 63.9844 350.126 64.9927 350.126 66.3956C350.126 67.6816 350.55 68.6023 351.398 69.1576C352.274 69.6837 353.356 69.9468 354.642 69.9468C355.636 69.9468 356.498 69.786 357.228 69.4645C357.988 69.1138 358.617 68.6608 359.114 68.1054C359.611 67.5501 359.991 66.9071 360.254 66.1764C360.517 65.4165 360.663 64.6127 360.692 63.7651V62.4499H357.272ZM370.361 56.6628C370.361 55.7276 370.332 54.8507 370.274 54.0324C370.215 53.214 370.186 52.4687 370.186 51.7965H373.43C373.43 52.3518 373.445 52.9071 373.474 53.4624C373.503 54.0178 373.518 54.5877 373.518 55.1722H373.606C373.839 54.6754 374.161 54.1931 374.57 53.7255C375.009 53.2578 375.52 52.8487 376.105 52.4979C376.689 52.118 377.347 51.8257 378.077 51.6211C378.808 51.3873 379.597 51.2704 380.445 51.2704C381.789 51.2704 382.944 51.475 383.908 51.8841C384.902 52.2933 385.72 52.8633 386.363 53.594C387.006 54.3246 387.474 55.2161 387.766 56.2683C388.088 57.2912 388.249 58.4165 388.249 59.6441V72.3142H384.829V59.9948C384.829 58.2704 384.449 56.9113 383.689 55.9175C382.929 54.9238 381.746 54.4269 380.138 54.4269C379.027 54.4269 378.063 54.6169 377.244 54.9969C376.455 55.3768 375.798 55.9175 375.272 56.619C374.775 57.3205 374.395 58.1535 374.132 59.118C373.898 60.0825 373.781 61.1493 373.781 62.3184V72.3142H370.361V56.6628ZM395.161 66.9217C395.833 67.7693 396.564 68.4416 397.353 68.9384C398.171 69.4353 399.194 69.6837 400.422 69.6837C400.948 69.6837 401.474 69.6253 402 69.5084C402.555 69.3915 403.052 69.2015 403.491 68.9384C403.929 68.6754 404.28 68.3539 404.543 67.9739C404.806 67.5647 404.937 67.0825 404.937 66.5272C404.937 65.9718 404.806 65.5188 404.543 65.1681C404.309 64.8173 403.988 64.5251 403.578 64.2912C403.169 64.0282 402.702 63.8236 402.175 63.6775C401.649 63.5313 401.109 63.3998 400.553 63.2829C399.589 63.0783 398.668 62.8445 397.791 62.5814C396.914 62.3184 396.14 61.9823 395.468 61.5731C394.825 61.1347 394.299 60.5793 393.889 59.9071C393.509 59.2349 393.32 58.3727 393.32 57.3205C393.32 56.3267 393.539 55.4499 393.977 54.69C394.416 53.9301 395 53.3017 395.731 52.8048C396.461 52.3079 397.28 51.928 398.186 51.6649C399.092 51.4019 400.027 51.2704 400.992 51.2704C402.453 51.2704 403.798 51.5626 405.025 52.1472C406.282 52.7317 407.261 53.6816 407.963 54.9969L405.113 56.8821C404.674 56.1514 404.09 55.5668 403.359 55.1284C402.658 54.6608 401.796 54.4269 400.773 54.4269C400.305 54.4269 399.823 54.4854 399.326 54.6023C398.858 54.7192 398.434 54.8946 398.054 55.1284C397.674 55.3622 397.353 55.6691 397.09 56.0491C396.856 56.3998 396.739 56.809 396.739 57.2766C396.739 57.715 396.871 58.095 397.134 58.4165C397.426 58.7088 397.806 58.9718 398.274 59.2056C398.77 59.4395 399.326 59.6441 399.94 59.8194C400.583 59.9948 401.24 60.1409 401.912 60.2578C402.818 60.4332 403.681 60.667 404.499 60.9593C405.317 61.2224 406.033 61.5877 406.647 62.0553C407.261 62.523 407.743 63.1075 408.094 63.809C408.445 64.5105 408.62 65.3727 408.62 66.3956C408.62 67.5647 408.386 68.5585 407.919 69.3768C407.451 70.1952 406.823 70.8674 406.033 71.3935C405.274 71.8904 404.397 72.2558 403.403 72.4896C402.439 72.7234 401.445 72.8403 400.422 72.8403C398.668 72.8403 397.148 72.5773 395.862 72.0512C394.606 71.4958 393.466 70.4875 392.443 69.0261L395.161 66.9217ZM413.214 51.7965H416.634V54.7777H416.721C417.656 53.667 418.738 52.8048 419.965 52.191C421.222 51.5773 422.596 51.2704 424.087 51.2704C425.694 51.2704 427.155 51.548 428.471 52.1034C429.815 52.6294 430.955 53.3747 431.89 54.3393C432.826 55.3038 433.556 56.4436 434.082 57.7589C434.608 59.0741 434.872 60.5063 434.872 62.0553C434.872 63.6044 434.608 65.0365 434.082 66.3518C433.556 67.667 432.826 68.8069 431.89 69.7714C430.984 70.7359 429.903 71.4958 428.646 72.0512C427.389 72.5773 426.045 72.8403 424.613 72.8403C422.771 72.8403 421.149 72.4457 419.746 71.6566C418.373 70.8382 417.364 69.8445 416.721 68.6754H416.634V82.31H413.214V51.7965ZM416.634 62.0553C416.634 63.1368 416.794 64.1451 417.116 65.0804C417.467 65.9864 417.963 66.7902 418.606 67.4917C419.249 68.1639 420.009 68.7046 420.886 69.1138C421.792 69.4937 422.801 69.6837 423.911 69.6837C425.022 69.6837 426.016 69.4937 426.892 69.1138C427.798 68.7046 428.573 68.1639 429.216 67.4917C429.859 66.7902 430.341 65.9864 430.663 65.0804C431.013 64.1451 431.189 63.1368 431.189 62.0553C431.189 60.9739 431.013 59.9802 430.663 59.0741C430.341 58.1388 429.859 57.3351 429.216 56.6628C428.573 55.9614 427.798 55.4207 426.892 55.0407C426.016 54.6315 425.022 54.4269 423.911 54.4269C422.801 54.4269 421.792 54.6315 420.886 55.0407C420.009 55.4207 419.249 55.9614 418.606 56.6628C417.963 57.3351 417.467 58.1388 417.116 59.0741C416.794 59.9802 416.634 60.9739 416.634 62.0553ZM439.928 54.4269C440.98 53.3455 442.222 52.5564 443.654 52.0595C445.116 51.5334 446.592 51.2704 448.082 51.2704C451.122 51.2704 453.314 51.9864 454.658 53.4186C456.003 54.8507 456.675 57.0282 456.675 59.951V68.7631C456.675 69.3476 456.704 69.9614 456.763 70.6044C456.821 71.2182 456.894 71.7881 456.982 72.3142H453.694C453.577 71.8466 453.504 71.3351 453.475 70.7798C453.475 70.1952 453.475 69.6837 453.475 69.2453H453.387C452.715 70.2975 451.809 71.1597 450.669 71.832C449.558 72.5042 448.214 72.8403 446.635 72.8403C445.583 72.8403 444.589 72.7088 443.654 72.4457C442.748 72.1827 441.944 71.8027 441.243 71.3059C440.571 70.7798 440.03 70.1368 439.621 69.3768C439.212 68.6169 439.007 67.7401 439.007 66.7464C439.007 65.0512 439.445 63.7213 440.322 62.7568C441.199 61.7923 442.28 61.0762 443.566 60.6086C444.882 60.1409 446.285 59.8487 447.775 59.7317C449.295 59.6148 450.683 59.5564 451.94 59.5564H453.255V58.9426C453.255 57.452 452.802 56.3267 451.896 55.5668C451.02 54.8069 449.777 54.4269 448.17 54.4269C447.059 54.4269 445.963 54.6169 444.882 54.9969C443.83 55.3476 442.894 55.9029 442.076 56.6628L439.928 54.4269ZM449.836 62.4499C447.644 62.4499 445.905 62.7568 444.619 63.3706C443.333 63.9844 442.69 64.9927 442.69 66.3956C442.69 67.6816 443.113 68.6023 443.961 69.1576C444.838 69.6837 445.919 69.9468 447.205 69.9468C448.199 69.9468 449.061 69.786 449.792 69.4645C450.552 69.1138 451.18 68.6608 451.677 68.1054C452.174 67.5501 452.554 66.9071 452.817 66.1764C453.08 65.4165 453.226 64.6127 453.255 63.7651V62.4499H449.836ZM462.925 56.6628C462.925 55.7276 462.896 54.8507 462.837 54.0324C462.779 53.214 462.749 52.4687 462.749 51.7965H465.994C465.994 52.3518 466.008 52.9071 466.038 53.4624C466.067 54.0178 466.081 54.5877 466.081 55.1722H466.169C466.403 54.6754 466.724 54.1931 467.134 53.7255C467.572 53.2578 468.083 52.8487 468.668 52.4979C469.253 52.118 469.91 51.8257 470.641 51.6211C471.372 51.3873 472.161 51.2704 473.008 51.2704C473.242 51.2704 473.476 51.285 473.71 51.3142C473.944 51.3434 474.177 51.4019 474.411 51.4896L474.192 54.953C473.608 54.7777 472.994 54.69 472.351 54.69C470.246 54.69 468.712 55.3768 467.747 56.7505C466.812 58.095 466.344 59.951 466.344 62.3184V72.3142H462.925V56.6628ZM495.893 68.5877C494.665 70.166 493.321 71.2766 491.859 71.9196C490.398 72.5334 488.703 72.8403 486.774 72.8403C485.166 72.8403 483.72 72.5626 482.434 72.0073C481.148 71.4228 480.051 70.6482 479.145 69.6837C478.269 68.7192 477.582 67.5793 477.085 66.2641C476.617 64.9489 476.383 63.5459 476.383 62.0553C476.383 60.477 476.646 59.0303 477.173 57.715C477.699 56.3706 478.429 55.2307 479.365 54.2954C480.3 53.3309 481.411 52.5856 482.697 52.0595C483.983 51.5334 485.386 51.2704 486.905 51.2704C488.338 51.2704 489.653 51.5188 490.851 52.0157C492.049 52.4833 493.072 53.1848 493.92 54.1201C494.797 55.0261 495.469 56.1514 495.937 57.4958C496.404 58.8111 496.638 60.3163 496.638 62.0115V63.1075H480.066C480.125 63.9844 480.329 64.832 480.68 65.6503C481.06 66.4395 481.542 67.1409 482.127 67.7547C482.711 68.3393 483.398 68.8069 484.187 69.1576C484.976 69.5084 485.839 69.6837 486.774 69.6837C488.264 69.6837 489.521 69.4207 490.544 68.8946C491.567 68.3685 492.488 67.594 493.306 66.571L495.893 68.5877ZM492.955 60.214C492.897 58.4603 492.327 57.0574 491.246 56.0052C490.164 54.953 488.674 54.4269 486.774 54.4269C484.874 54.4269 483.34 54.953 482.17 56.0052C481.001 57.0574 480.3 58.4603 480.066 60.214H492.955ZM501.928 56.6628C501.928 55.7276 501.899 54.8507 501.841 54.0324C501.782 53.214 501.753 52.4687 501.753 51.7965H504.997C504.997 52.3518 505.012 52.9071 505.041 53.4624C505.07 54.0178 505.085 54.5877 505.085 55.1722H505.172C505.406 54.6754 505.728 54.1931 506.137 53.7255C506.575 53.2578 507.087 52.8487 507.671 52.4979C508.256 52.118 508.914 51.8257 509.644 51.6211C510.375 51.3873 511.164 51.2704 512.012 51.2704C513.356 51.2704 514.511 51.475 515.475 51.8841C516.469 52.2933 517.287 52.8633 517.93 53.594C518.573 54.3246 519.041 55.2161 519.333 56.2683C519.655 57.2912 519.815 58.4165 519.815 59.6441V72.3142H516.396V59.9948C516.396 58.2704 516.016 56.9113 515.256 55.9175C514.496 54.9238 513.312 54.4269 511.705 54.4269C510.594 54.4269 509.63 54.6169 508.811 54.9969C508.022 55.3768 507.365 55.9175 506.838 56.619C506.342 57.3205 505.962 58.1535 505.699 59.118C505.465 60.0825 505.348 61.1493 505.348 62.3184V72.3142H501.928V56.6628ZM540.888 56.9259C540.158 56.0491 539.369 55.4207 538.521 55.0407C537.673 54.6315 536.738 54.4269 535.715 54.4269C534.575 54.4269 533.567 54.6315 532.69 55.0407C531.813 55.4207 531.083 55.9614 530.498 56.6628C529.943 57.3643 529.519 58.1827 529.227 59.118C528.934 60.024 528.788 61.0031 528.788 62.0553C528.788 63.1075 528.949 64.1013 529.27 65.0365C529.621 65.9426 530.089 66.7464 530.673 67.4478C531.287 68.1493 532.018 68.7046 532.865 69.1138C533.713 69.4937 534.663 69.6837 535.715 69.6837C537.966 69.6837 539.705 68.8361 540.932 67.1409L543.475 69.5522C542.481 70.6921 541.312 71.5251 539.968 72.0512C538.623 72.5773 537.206 72.8403 535.715 72.8403C534.137 72.8403 532.69 72.5773 531.375 72.0512C530.06 71.5251 528.934 70.7798 527.999 69.8153C527.093 68.8507 526.377 67.7109 525.851 66.3956C525.354 65.0804 525.106 63.6336 525.106 62.0553C525.106 60.5063 525.354 59.0741 525.851 57.7589C526.377 56.4436 527.108 55.3038 528.043 54.3393C528.978 53.3747 530.089 52.6294 531.375 52.1034C532.69 51.548 534.137 51.2704 535.715 51.2704C537.235 51.2704 538.667 51.5334 540.012 52.0595C541.385 52.5856 542.584 53.404 543.607 54.5146L540.888 56.9259ZM554.98 77.0052C554.629 77.8821 554.264 78.6712 553.884 79.3727C553.533 80.1034 553.095 80.7171 552.569 81.214C552.072 81.7401 551.458 82.1347 550.727 82.3977C550.026 82.69 549.164 82.8361 548.141 82.8361C547.644 82.8361 547.118 82.8069 546.562 82.7484C546.036 82.69 545.539 82.5439 545.072 82.31L545.51 79.3288C545.861 79.475 546.226 79.5626 546.606 79.5919C546.986 79.6503 547.425 79.6796 547.922 79.6796C549.032 79.6796 549.851 79.3727 550.377 78.7589C550.903 78.1451 551.356 77.3267 551.736 76.3038L553.139 72.4457L544.633 51.7965H548.623L554.98 67.8862H555.068L561.162 51.7965H564.888L554.98 77.0052Z" fill="black"/>
<rect y="543.351" width="873.165" height="116.628" rx="58.3142" fill="white"/>
<path d="M317.967 616.454C315.6 616.454 313.422 616.045 311.435 615.226C309.477 614.408 307.767 613.283 306.305 611.851C304.873 610.389 303.748 608.665 302.93 606.677C302.14 604.661 301.746 602.483 301.746 600.145C301.746 597.807 302.14 595.644 302.93 593.656C303.748 591.64 304.873 589.915 306.305 588.483C307.767 587.022 309.477 585.882 311.435 585.064C313.422 584.245 315.6 583.836 317.967 583.836C320.335 583.836 322.497 584.245 324.456 585.064C326.443 585.882 328.153 587.022 329.585 588.483C331.047 589.915 332.172 591.64 332.961 593.656C333.779 595.644 334.189 597.807 334.189 600.145C334.189 602.483 333.779 604.661 332.961 606.677C332.172 608.665 331.047 610.389 329.585 611.851C328.153 613.283 326.443 614.408 324.456 615.226C322.497 616.045 320.335 616.454 317.967 616.454ZM317.967 613.034C319.779 613.034 321.431 612.698 322.921 612.026C324.441 611.354 325.742 610.433 326.823 609.264C327.905 608.095 328.738 606.736 329.322 605.187C329.936 603.608 330.243 601.928 330.243 600.145C330.243 598.362 329.936 596.696 329.322 595.147C328.738 593.569 327.905 592.195 326.823 591.026C325.742 589.857 324.441 588.936 322.921 588.264C321.431 587.592 319.779 587.256 317.967 587.256C316.155 587.256 314.489 587.592 312.969 588.264C311.479 588.936 310.193 589.857 309.111 591.026C308.03 592.195 307.182 593.569 306.568 595.147C305.984 596.696 305.692 598.362 305.692 600.145C305.692 601.928 305.984 603.608 306.568 605.187C307.182 606.736 308.03 608.095 309.111 609.264C310.193 610.433 311.479 611.354 312.969 612.026C314.489 612.698 316.155 613.034 317.967 613.034ZM339.317 595.147H342.737V598.128H342.825C343.76 597.018 344.841 596.155 346.069 595.542C347.326 594.928 348.699 594.621 350.19 594.621C351.797 594.621 353.259 594.899 354.574 595.454C355.919 595.98 357.058 596.725 357.994 597.69C358.929 598.654 359.66 599.794 360.186 601.109C360.712 602.425 360.975 603.857 360.975 605.406C360.975 606.955 360.712 608.387 360.186 609.702C359.66 611.018 358.929 612.157 357.994 613.122C357.088 614.087 356.006 614.846 354.749 615.402C353.493 615.928 352.148 616.191 350.716 616.191C348.875 616.191 347.253 615.796 345.85 615.007C344.476 614.189 343.468 613.195 342.825 612.026H342.737V625.661H339.317V595.147ZM342.737 605.406C342.737 606.487 342.898 607.496 343.219 608.431C343.57 609.337 344.067 610.141 344.71 610.842C345.353 611.514 346.113 612.055 346.989 612.464C347.896 612.844 348.904 613.034 350.015 613.034C351.125 613.034 352.119 612.844 352.996 612.464C353.902 612.055 354.676 611.514 355.319 610.842C355.962 610.141 356.445 609.337 356.766 608.431C357.117 607.496 357.292 606.487 357.292 605.406C357.292 604.325 357.117 603.331 356.766 602.425C356.445 601.489 355.962 600.686 355.319 600.013C354.676 599.312 353.902 598.771 352.996 598.391C352.119 597.982 351.125 597.778 350.015 597.778C348.904 597.778 347.896 597.982 346.989 598.391C346.113 598.771 345.353 599.312 344.71 600.013C344.067 600.686 343.57 601.489 343.219 602.425C342.898 603.331 342.737 604.325 342.737 605.406ZM384.62 611.938C383.392 613.517 382.048 614.627 380.586 615.27C379.125 615.884 377.43 616.191 375.501 616.191C373.893 616.191 372.446 615.913 371.16 615.358C369.874 614.773 368.778 613.999 367.872 613.034C366.996 612.07 366.309 610.93 365.812 609.615C365.344 608.299 365.11 606.897 365.11 605.406C365.11 603.828 365.373 602.381 365.899 601.066C366.426 599.721 367.156 598.581 368.092 597.646C369.027 596.681 370.137 595.936 371.423 595.41C372.71 594.884 374.112 594.621 375.632 594.621C377.064 594.621 378.38 594.869 379.578 595.366C380.776 595.834 381.799 596.535 382.647 597.471C383.524 598.377 384.196 599.502 384.664 600.846C385.131 602.162 385.365 603.667 385.365 605.362V606.458H368.793C368.851 607.335 369.056 608.183 369.407 609.001C369.787 609.79 370.269 610.492 370.854 611.105C371.438 611.69 372.125 612.157 372.914 612.508C373.703 612.859 374.565 613.034 375.501 613.034C376.991 613.034 378.248 612.771 379.271 612.245C380.294 611.719 381.215 610.945 382.033 609.922L384.62 611.938ZM381.682 603.565C381.624 601.811 381.054 600.408 379.973 599.356C378.891 598.304 377.401 597.778 375.501 597.778C373.601 597.778 372.066 598.304 370.897 599.356C369.728 600.408 369.027 601.811 368.793 603.565H381.682ZM390.655 600.013C390.655 599.078 390.626 598.201 390.567 597.383C390.509 596.565 390.48 595.819 390.48 595.147H393.724C393.724 595.702 393.739 596.258 393.768 596.813C393.797 597.368 393.812 597.938 393.812 598.523H393.899C394.133 598.026 394.455 597.544 394.864 597.076C395.302 596.608 395.814 596.199 396.398 595.849C396.983 595.469 397.641 595.176 398.371 594.972C399.102 594.738 399.891 594.621 400.739 594.621C402.083 594.621 403.238 594.826 404.202 595.235C405.196 595.644 406.014 596.214 406.657 596.945C407.3 597.675 407.768 598.567 408.06 599.619C408.382 600.642 408.542 601.767 408.542 602.995V615.665H405.123V603.345C405.123 601.621 404.743 600.262 403.983 599.268C403.223 598.274 402.039 597.778 400.432 597.778C399.321 597.778 398.357 597.968 397.538 598.347C396.749 598.727 396.091 599.268 395.565 599.97C395.068 600.671 394.689 601.504 394.425 602.469C394.192 603.433 394.075 604.5 394.075 605.669V615.665H390.655V600.013ZM438.441 598.041H432.391V608.299C432.391 608.972 432.406 609.6 432.435 610.185C432.464 610.74 432.581 611.237 432.786 611.675C432.991 612.084 433.297 612.421 433.707 612.684C434.116 612.917 434.7 613.034 435.46 613.034C435.957 613.034 436.469 612.976 436.995 612.859C437.521 612.742 438.018 612.567 438.485 612.333L438.617 615.446C438.032 615.709 437.375 615.899 436.644 616.016C435.943 616.132 435.27 616.191 434.627 616.191C433.4 616.191 432.421 616.03 431.69 615.709C430.959 615.387 430.389 614.934 429.98 614.35C429.571 613.765 429.293 613.049 429.147 612.201C429.03 611.325 428.972 610.36 428.972 609.308V598.041H424.5V595.147H428.972V589.316H432.391V595.147H438.441V598.041ZM441.447 605.406C441.447 603.798 441.725 602.337 442.28 601.022C442.836 599.707 443.596 598.581 444.56 597.646C445.525 596.681 446.679 595.936 448.024 595.41C449.368 594.884 450.829 594.621 452.408 594.621C453.986 594.621 455.447 594.884 456.792 595.41C458.136 595.936 459.291 596.681 460.255 597.646C461.22 598.581 461.98 599.707 462.535 601.022C463.09 602.337 463.368 603.798 463.368 605.406C463.368 607.013 463.09 608.475 462.535 609.79C461.98 611.105 461.22 612.245 460.255 613.21C459.291 614.145 458.136 614.876 456.792 615.402C455.447 615.928 453.986 616.191 452.408 616.191C450.829 616.191 449.368 615.928 448.024 615.402C446.679 614.876 445.525 614.145 444.56 613.21C443.596 612.245 442.836 611.105 442.28 609.79C441.725 608.475 441.447 607.013 441.447 605.406ZM445.13 605.406C445.13 606.487 445.291 607.496 445.612 608.431C445.963 609.337 446.46 610.141 447.103 610.842C447.746 611.514 448.506 612.055 449.383 612.464C450.289 612.844 451.297 613.034 452.408 613.034C453.518 613.034 454.512 612.844 455.389 612.464C456.295 612.055 457.069 611.514 457.713 610.842C458.356 610.141 458.838 609.337 459.159 608.431C459.51 607.496 459.685 606.487 459.685 605.406C459.685 604.325 459.51 603.331 459.159 602.425C458.838 601.489 458.356 600.686 457.713 600.013C457.069 599.312 456.295 598.771 455.389 598.391C454.512 597.982 453.518 597.778 452.408 597.778C451.297 597.778 450.289 597.982 449.383 598.391C448.506 598.771 447.746 599.312 447.103 600.013C446.46 600.686 445.963 601.489 445.612 602.425C445.291 603.331 445.13 604.325 445.13 605.406ZM502.872 615.665H499.496L493.665 599.882H493.578L488.405 615.665H484.897L478.233 595.147H482.004L486.695 610.93H486.782L492.087 595.147H495.682L501.075 610.93H501.162L505.81 595.147H509.492L502.872 615.665ZM512.176 605.406C512.176 603.798 512.453 602.337 513.009 601.022C513.564 599.707 514.324 598.581 515.289 597.646C516.253 596.681 517.408 595.936 518.752 595.41C520.096 594.884 521.558 594.621 523.136 594.621C524.714 594.621 526.176 594.884 527.52 595.41C528.865 595.936 530.019 596.681 530.984 597.646C531.948 598.581 532.708 599.707 533.263 601.022C533.819 602.337 534.096 603.798 534.096 605.406C534.096 607.013 533.819 608.475 533.263 609.79C532.708 611.105 531.948 612.245 530.984 613.21C530.019 614.145 528.865 614.876 527.52 615.402C526.176 615.928 524.714 616.191 523.136 616.191C521.558 616.191 520.096 615.928 518.752 615.402C517.408 614.876 516.253 614.145 515.289 613.21C514.324 612.245 513.564 611.105 513.009 609.79C512.453 608.475 512.176 607.013 512.176 605.406ZM515.858 605.406C515.858 606.487 516.019 607.496 516.341 608.431C516.691 609.337 517.188 610.141 517.831 610.842C518.474 611.514 519.234 612.055 520.111 612.464C521.017 612.844 522.025 613.034 523.136 613.034C524.247 613.034 525.24 612.844 526.117 612.464C527.023 612.055 527.798 611.514 528.441 610.842C529.084 610.141 529.566 609.337 529.888 608.431C530.238 607.496 530.414 606.487 530.414 605.406C530.414 604.325 530.238 603.331 529.888 602.425C529.566 601.489 529.084 600.686 528.441 600.013C527.798 599.312 527.023 598.771 526.117 598.391C525.24 597.982 524.247 597.778 523.136 597.778C522.025 597.778 521.017 597.982 520.111 598.391C519.234 598.771 518.474 599.312 517.831 600.013C517.188 600.686 516.691 601.489 516.341 602.425C516.019 603.331 515.858 604.325 515.858 605.406ZM539.39 600.013C539.39 599.078 539.361 598.201 539.303 597.383C539.244 596.565 539.215 595.819 539.215 595.147H542.459C542.459 595.702 542.474 596.258 542.503 596.813C542.532 597.368 542.547 597.938 542.547 598.523H542.635C542.868 598.026 543.19 597.544 543.599 597.076C544.037 596.608 544.549 596.199 545.134 595.849C545.718 595.469 546.376 595.176 547.106 594.972C547.837 594.738 548.626 594.621 549.474 594.621C549.708 594.621 549.941 594.636 550.175 594.665C550.409 594.694 550.643 594.752 550.877 594.84L550.658 598.304C550.073 598.128 549.459 598.041 548.816 598.041C546.712 598.041 545.177 598.727 544.213 600.101C543.278 601.446 542.81 603.302 542.81 605.669V615.665H539.39V600.013ZM554.803 582.521H558.223V604.178L567.561 595.147H572.427L562.519 604.485L573.436 615.665H568.394L558.223 604.88V615.665H554.803V582.521Z" fill="black"/>
<rect x="39" y="209.62" width="787.165" height="116.628" rx="58.3142" transform="rotate(-5.68617 39 209.62)" fill="white"/>
<path d="M345.273 220.604L348.938 220.239L350.241 233.326L366.732 231.684L365.428 218.597L369.093 218.232L372.168 249.119L368.504 249.484L367.07 235.087L350.58 236.729L352.013 251.126L348.349 251.49L345.273 220.604ZM396.539 241.802C396.632 242.732 396.748 243.602 396.887 244.411C397.026 245.219 397.129 245.958 397.196 246.627L393.967 246.948C393.912 246.396 393.843 245.845 393.759 245.295C393.674 244.745 393.603 244.179 393.546 243.598L393.458 243.606C393.275 244.124 392.988 244.637 392.598 245.146C392.237 245.652 391.785 246.123 391.241 246.559C390.694 246.966 390.067 247.307 389.36 247.583C388.656 247.888 387.883 248.083 387.039 248.167C385.701 248.3 384.518 248.212 383.488 247.904C382.488 247.592 381.632 247.104 380.92 246.441C380.207 245.778 379.641 244.953 379.219 243.967C378.824 242.949 378.566 241.829 378.444 240.607L377.189 228L380.592 227.661L381.812 239.92C381.983 241.636 382.496 242.95 383.351 243.864C384.205 244.777 385.432 245.155 387.032 244.995C388.137 244.885 389.064 244.602 389.811 244.146C390.588 243.687 391.189 243.083 391.614 242.336C392.068 241.586 392.363 240.72 392.5 239.737C392.666 238.751 392.692 237.676 392.576 236.513L391.585 226.566L394.988 226.227L396.539 241.802ZM401.912 230.428C401.82 229.498 401.704 228.628 401.564 227.82C401.425 227.011 401.322 226.272 401.256 225.603L404.484 225.282C404.539 225.835 404.608 226.386 404.693 226.935C404.777 227.485 404.848 228.051 404.906 228.632L404.993 228.624C405.176 228.106 405.448 227.594 405.809 227.089C406.199 226.58 406.668 226.122 407.215 225.715C407.759 225.279 408.384 224.923 409.091 224.647C409.795 224.342 410.568 224.147 411.412 224.063C412.517 223.953 413.448 224.008 414.204 224.226C414.986 224.412 415.645 224.685 416.18 225.043C416.712 225.371 417.132 225.756 417.44 226.195C417.774 226.602 418.046 226.972 418.255 227.303C418.89 226.006 419.668 224.974 420.59 224.207C421.51 223.41 422.755 222.934 424.325 222.778C425.779 222.633 427.021 222.715 428.05 223.024C429.077 223.303 429.933 223.791 430.619 224.486C431.302 225.152 431.828 226.01 432.197 227.061C432.563 228.081 432.811 229.246 432.942 230.555L434.175 242.945L430.773 243.284L429.556 231.068C429.487 230.37 429.346 229.694 429.134 229.04C428.922 228.385 428.601 227.815 428.171 227.329C427.741 226.843 427.19 226.472 426.518 226.216C425.846 225.96 425.016 225.881 424.027 225.98C423.3 226.052 422.631 226.265 422.02 226.62C421.409 226.974 420.883 227.438 420.44 228.011C420.027 228.581 419.713 229.258 419.497 230.043C419.308 230.796 419.258 231.624 419.348 232.525L420.521 244.304L417.118 244.643L415.967 233.082C415.741 230.814 415.276 229.245 414.573 228.375C413.866 227.476 412.815 227.096 411.419 227.235C410.314 227.345 409.373 227.63 408.596 228.089C407.849 228.545 407.248 229.148 406.794 229.898C406.369 230.646 406.074 231.512 405.907 232.498C405.77 233.481 405.76 234.554 405.875 235.717L406.866 245.664L403.463 246.003L401.912 230.428ZM438.579 224.531C439.519 223.35 440.677 222.442 442.053 221.806C443.455 221.137 444.897 220.729 446.381 220.582C449.405 220.28 451.657 220.776 453.137 222.068C454.617 223.36 455.502 225.46 455.791 228.368L456.664 237.137C456.722 237.719 456.812 238.326 456.934 238.96C457.053 239.565 457.182 240.125 457.322 240.64L454.05 240.966C453.887 240.512 453.764 240.01 453.679 239.461C453.622 238.879 453.571 238.37 453.527 237.934L453.44 237.943C452.876 239.056 452.059 240.004 450.992 240.786C449.953 241.565 448.649 242.032 447.078 242.189C446.031 242.293 445.029 242.261 444.072 242.092C443.145 241.92 442.307 241.621 441.56 241.196C440.839 240.739 440.237 240.153 439.755 239.437C439.272 238.722 438.982 237.869 438.883 236.881C438.715 235.194 439.02 233.827 439.797 232.78C440.574 231.734 441.579 230.914 442.812 230.321C444.075 229.726 445.442 229.296 446.914 229.032C448.414 228.765 449.79 228.569 451.041 228.445L452.349 228.314L452.289 227.704C452.141 226.22 451.579 225.145 450.602 224.479C449.654 223.81 448.38 223.555 446.781 223.714C445.675 223.824 444.604 224.122 443.565 224.607C442.553 225.06 441.677 225.705 440.938 226.543L438.579 224.531ZM449.233 231.532C447.052 231.75 445.352 232.227 444.133 232.965C442.914 233.704 442.374 234.771 442.513 236.167C442.641 237.446 443.154 238.321 444.052 238.789C444.977 239.226 446.079 239.38 447.358 239.253C448.347 239.155 449.189 238.909 449.885 238.517C450.606 238.093 451.186 237.579 451.626 236.978C452.065 236.376 452.38 235.698 452.569 234.945C452.755 234.163 452.821 233.349 452.766 232.502L452.636 231.194L449.233 231.532ZM461.684 224.477C461.592 223.546 461.476 222.677 461.337 221.868C461.197 221.06 461.094 220.321 461.028 219.652L464.256 219.33C464.311 219.883 464.381 220.434 464.465 220.984C464.549 221.534 464.62 222.099 464.678 222.681L464.765 222.672C464.949 222.155 465.221 221.643 465.582 221.137C465.971 220.628 466.44 220.17 466.987 219.763C467.531 219.327 468.156 218.971 468.863 218.696C469.567 218.39 470.341 218.196 471.184 218.112C472.522 217.979 473.691 218.068 474.691 218.38C475.721 218.688 476.592 219.174 477.304 219.838C478.016 220.501 478.57 221.342 478.965 222.36C479.386 223.346 479.657 224.45 479.779 225.671L481.034 238.279L477.632 238.618L476.411 226.359C476.24 224.643 475.727 223.328 474.873 222.415C474.018 221.501 472.791 221.124 471.191 221.283C470.086 221.393 469.145 221.678 468.369 222.137C467.621 222.593 467.02 223.197 466.566 223.947C466.141 224.694 465.846 225.561 465.68 226.546C465.542 227.529 465.532 228.603 465.648 229.766L466.638 239.712L463.235 240.051L461.684 224.477ZM485.749 217.19L489.152 216.852L491.185 237.268L487.782 237.607L485.749 217.19ZM484.169 209.285C484.102 208.616 484.277 208.011 484.693 207.471C485.138 206.927 485.71 206.62 486.408 206.551C487.106 206.481 487.712 206.671 488.227 207.119C488.77 207.564 489.075 208.121 489.142 208.79C489.214 209.517 489.041 210.136 488.622 210.648C488.203 211.16 487.63 211.452 486.903 211.524C486.176 211.597 485.556 211.423 485.045 211.004C484.533 210.585 484.241 210.012 484.169 209.285ZM507.379 217.945L501.358 218.544L502.375 228.752C502.441 229.421 502.518 230.045 502.605 230.624C502.689 231.174 502.855 231.657 503.102 232.073C503.346 232.459 503.685 232.763 504.118 232.985C504.548 233.177 505.142 233.235 505.898 233.16C506.392 233.111 506.895 233.002 507.407 232.833C507.919 232.665 508.396 232.441 508.838 232.162L509.278 235.247C508.722 235.566 508.087 235.82 507.371 236.009C506.685 236.195 506.021 236.32 505.382 236.384C504.16 236.505 503.17 236.442 502.411 236.195C501.652 235.947 501.04 235.553 500.575 235.012C500.11 234.471 499.763 233.786 499.533 232.957C499.33 232.096 499.176 231.142 499.072 230.095L497.956 218.883L493.506 219.326L493.219 216.447L497.669 216.004L497.091 210.201L500.494 209.863L501.072 215.665L507.092 215.065L507.379 217.945ZM521.262 238.988C521 239.895 520.715 240.717 520.406 241.452C520.13 242.214 519.754 242.868 519.28 243.415C518.838 243.988 518.266 244.441 517.565 244.775C516.896 245.135 516.052 245.366 515.034 245.468C514.54 245.517 514.014 245.54 513.455 245.537C512.926 245.531 512.417 245.435 511.929 245.248L512.069 242.238C512.433 242.349 512.805 242.4 513.186 242.391C513.57 242.412 514.009 242.398 514.504 242.348C515.609 242.238 516.393 241.852 516.855 241.189C517.318 240.526 517.688 239.667 517.965 238.611L518.978 234.633L508.469 214.928L512.439 214.533L520.359 229.914L520.446 229.905L524.916 213.291L528.624 212.921L521.262 238.988Z" fill="black"/>
<rect x="56" y="340.675" width="775.165" height="116.628" rx="58.3142" transform="rotate(5.29576 56 340.675)" fill="white"/>
<path d="M354.652 409.809L358.319 410.149L357.08 423.507L357.604 423.556L372.899 411.5L378.181 411.99L361.595 424.674L376.059 442.966L370.689 442.468L357.434 425.389L356.91 425.34L355.454 441.056L351.787 440.716L354.652 409.809ZM380.872 422.806L384.277 423.122L382.383 443.552L378.978 443.237L380.872 422.806ZM380.827 414.745C380.889 414.075 381.175 413.515 381.687 413.063C382.228 412.615 382.847 412.422 383.546 412.487C384.244 412.552 384.803 412.853 385.223 413.391C385.672 413.932 385.865 414.537 385.803 415.206C385.736 415.934 385.448 416.509 384.939 416.931C384.43 417.354 383.812 417.531 383.084 417.464C382.357 417.396 381.782 417.108 381.359 416.599C380.937 416.091 380.759 415.472 380.827 414.745ZM390.604 428.596C390.691 427.664 390.743 426.789 390.76 425.968C390.777 425.148 390.817 424.403 390.879 423.734L394.109 424.033C394.058 424.586 394.021 425.141 393.999 425.696C393.977 426.252 393.939 426.821 393.885 427.403L393.972 427.411C394.251 426.938 394.616 426.487 395.066 426.059C395.546 425.634 396.093 425.274 396.708 424.979C397.325 424.654 398.006 424.424 398.753 424.288C399.502 424.122 400.299 424.079 401.143 424.157C402.481 424.281 403.612 424.591 404.535 425.088C405.486 425.587 406.249 426.23 406.822 427.017C407.394 427.804 407.778 428.735 407.972 429.809C408.197 430.858 408.254 431.993 408.14 433.215L406.971 445.831L403.566 445.516L404.703 433.249C404.862 431.532 404.609 430.143 403.944 429.084C403.279 428.024 402.146 427.42 400.546 427.272C399.44 427.169 398.462 427.269 397.612 427.572C396.791 427.878 396.086 428.355 395.498 429.005C394.938 429.658 394.483 430.452 394.132 431.388C393.81 432.327 393.595 433.379 393.488 434.543L392.565 444.496L389.16 444.18L390.604 428.596ZM430.734 444.38L430.647 444.371C429.899 445.476 428.789 446.371 427.316 447.057C425.875 447.716 424.238 447.96 422.405 447.79C420.979 447.658 419.664 447.272 418.461 446.632C417.261 445.963 416.24 445.105 415.398 444.059C414.585 443.015 413.977 441.814 413.574 440.455C413.172 439.097 413.042 437.647 413.185 436.104C413.328 434.562 413.722 433.16 414.367 431.899C415.013 430.638 415.846 429.571 416.866 428.696C417.886 427.822 419.075 427.184 420.434 426.782C421.824 426.353 423.319 426.213 424.92 426.361C426.404 426.498 427.729 426.93 428.894 427.654C430.089 428.381 431.101 429.341 431.93 430.533L432.017 430.541L433.458 415L436.863 415.316L433.803 448.318L430.398 448.003L430.734 444.38ZM431.345 437.788C431.445 436.711 431.362 435.705 431.097 434.771C430.863 433.81 430.457 432.965 429.879 432.236C429.303 431.478 428.582 430.868 427.715 430.407C426.879 429.918 425.909 429.623 424.803 429.52C423.697 429.418 422.674 429.528 421.734 429.852C420.826 430.15 420.019 430.618 419.314 431.257C418.612 431.867 418.043 432.621 417.607 433.52C417.204 434.393 416.952 435.368 416.852 436.444C416.752 437.521 416.819 438.54 417.053 439.501C417.319 440.436 417.739 441.282 418.315 442.04C418.893 442.768 419.6 443.377 420.435 443.865C421.302 444.327 422.289 444.609 423.395 444.712C424.501 444.814 425.508 444.717 426.416 444.42C427.356 444.096 428.177 443.629 428.879 443.019C429.584 442.38 430.139 441.624 430.542 440.751C430.978 439.852 431.246 438.865 431.345 437.788ZM441.549 433.318C441.635 432.387 441.687 431.511 441.704 430.691C441.721 429.87 441.761 429.125 441.823 428.456L445.054 428.756C445.002 429.308 444.966 429.863 444.943 430.418C444.921 430.974 444.883 431.543 444.829 432.125L444.917 432.133C445.195 431.66 445.56 431.209 446.01 430.782C446.49 430.356 447.037 429.996 447.652 429.701C448.269 429.376 448.951 429.146 449.697 429.01C450.446 428.844 451.243 428.801 452.087 428.879C453.425 429.003 454.556 429.313 455.479 429.81C456.431 430.309 457.193 430.952 457.766 431.739C458.338 432.526 458.722 433.457 458.916 434.531C459.141 435.58 459.198 436.715 459.084 437.937L457.915 450.553L454.51 450.238L455.647 437.971C455.806 436.254 455.553 434.866 454.888 433.806C454.223 432.746 453.09 432.142 451.49 431.994C450.384 431.891 449.406 431.992 448.556 432.294C447.735 432.6 447.03 433.078 446.442 433.727C445.882 434.38 445.427 435.174 445.076 436.111C444.754 437.049 444.54 438.101 444.432 439.265L443.509 449.218L440.104 448.902L441.549 433.318ZM482.952 449.132C481.585 450.59 480.143 451.572 478.629 452.077C477.117 452.553 475.401 452.703 473.48 452.525C471.879 452.376 470.464 451.966 469.235 451.294C468.008 450.594 466.989 449.721 466.175 448.677C465.391 447.636 464.813 446.438 464.439 445.082C464.095 443.729 463.992 442.311 464.129 440.827C464.275 439.255 464.67 437.839 465.316 436.578C465.964 435.287 466.796 434.22 467.814 433.375C468.834 432.501 470.009 431.861 471.338 431.456C472.667 431.051 474.088 430.918 475.602 431.059C477.028 431.191 478.314 431.56 479.462 432.165C480.612 432.741 481.566 433.534 482.323 434.544C483.113 435.527 483.678 436.709 484.02 438.091C484.364 439.444 484.458 440.964 484.302 442.652L484.2 443.744L467.699 442.214C467.676 443.093 467.802 443.956 468.076 444.803C468.381 445.624 468.797 446.367 469.322 447.032C469.85 447.668 470.491 448.197 471.244 448.619C471.998 449.041 472.84 449.295 473.771 449.381C475.255 449.519 476.531 449.373 477.598 448.944C478.666 448.514 479.654 447.828 480.563 446.885L482.952 449.132ZM480.801 440.523C480.904 438.771 480.466 437.322 479.486 436.174C478.507 435.027 477.071 434.365 475.179 434.19C473.288 434.014 471.711 434.397 470.45 435.336C469.189 436.276 468.361 437.608 467.966 439.333L480.801 440.523ZM489.552 448.07C490.144 448.976 490.809 449.713 491.549 450.281C492.318 450.851 493.314 451.193 494.536 451.306C495.06 451.355 495.589 451.345 496.124 451.277C496.687 451.212 497.2 451.069 497.661 450.847C498.121 450.626 498.5 450.338 498.797 449.984C499.097 449.601 499.272 449.133 499.324 448.58C499.375 448.027 499.286 447.564 499.056 447.19C498.856 446.819 498.563 446.499 498.177 446.228C497.794 445.928 497.347 445.681 496.837 445.487C496.326 445.293 495.8 445.112 495.258 444.945C494.316 444.652 493.421 444.334 492.572 443.991C491.723 443.649 490.983 443.242 490.352 442.773C489.752 442.277 489.279 441.675 488.934 440.968C488.618 440.264 488.508 439.388 488.605 438.34C488.697 437.351 488.996 436.498 489.503 435.782C490.009 435.065 490.649 434.494 491.423 434.066C492.196 433.639 493.046 433.336 493.973 433.158C494.899 432.98 495.843 432.935 496.803 433.024C498.258 433.159 499.57 433.574 500.738 434.269C501.936 434.967 502.823 436.004 503.4 437.378L500.389 438.992C500.019 438.224 499.491 437.588 498.804 437.084C498.149 436.554 497.312 436.241 496.293 436.147C495.828 436.104 495.342 436.117 494.837 436.188C494.36 436.261 493.922 436.397 493.522 436.594C493.122 436.792 492.774 437.068 492.477 437.422C492.212 437.75 492.057 438.146 492.014 438.612C491.974 439.049 492.07 439.439 492.302 439.784C492.566 440.102 492.92 440.399 493.364 440.675C493.837 440.953 494.371 441.208 494.966 441.439C495.59 441.673 496.232 441.88 496.89 442.058C497.776 442.316 498.613 442.629 499.401 442.995C500.192 443.333 500.871 443.763 501.439 444.285C502.007 444.807 502.433 445.434 502.718 446.165C503.002 446.895 503.097 447.77 503.003 448.789C502.895 449.953 502.57 450.921 502.029 451.692C501.488 452.464 500.8 453.076 499.966 453.527C499.163 453.951 498.257 454.234 497.246 454.375C496.264 454.519 495.263 454.544 494.245 454.449C492.498 454.287 491.009 453.885 489.777 453.243C488.577 452.574 487.535 451.464 486.652 449.915L489.552 448.07ZM508.14 449.793C508.731 450.699 509.396 451.436 510.136 452.004C510.905 452.574 511.901 452.916 513.123 453.029C513.647 453.078 514.176 453.068 514.711 453C515.275 452.935 515.787 452.792 516.248 452.57C516.709 452.349 517.087 452.061 517.384 451.707C517.684 451.324 517.86 450.856 517.911 450.303C517.962 449.75 517.873 449.287 517.643 448.913C517.443 448.542 517.15 448.221 516.764 447.951C516.381 447.651 515.934 447.404 515.424 447.21C514.913 447.016 514.387 446.835 513.845 446.668C512.903 446.375 512.008 446.057 511.159 445.714C510.311 445.371 509.57 444.965 508.939 444.496C508.339 444 507.866 443.398 507.521 442.691C507.205 441.987 507.095 441.111 507.192 440.063C507.284 439.074 507.583 438.221 508.09 437.504C508.597 436.788 509.237 436.216 510.01 435.789C510.783 435.362 511.633 435.059 512.56 434.881C513.486 434.702 514.43 434.658 515.39 434.747C516.845 434.882 518.157 435.297 519.325 435.992C520.523 436.69 521.41 437.726 521.987 439.101L518.976 440.715C518.607 439.947 518.078 439.311 517.391 438.807C516.736 438.277 515.899 437.964 514.881 437.87C514.415 437.827 513.929 437.84 513.424 437.911C512.947 437.984 512.509 438.12 512.109 438.317C511.709 438.515 511.361 438.791 511.064 439.145C510.799 439.473 510.644 439.869 510.601 440.335C510.561 440.772 510.657 441.162 510.889 441.506C511.153 441.824 511.507 442.121 511.951 442.397C512.424 442.676 512.958 442.931 513.553 443.162C514.177 443.396 514.819 443.602 515.477 443.781C516.363 444.039 517.2 444.352 517.988 444.718C518.779 445.056 519.458 445.485 520.026 446.008C520.594 446.53 521.02 447.157 521.305 447.887C521.589 448.618 521.684 449.493 521.59 450.512C521.482 451.676 521.157 452.644 520.616 453.415C520.075 454.187 519.387 454.798 518.553 455.249C517.751 455.674 516.844 455.957 515.833 456.098C514.851 456.242 513.85 456.267 512.832 456.172C511.086 456.01 509.597 455.608 508.365 454.966C507.164 454.297 506.122 453.187 505.239 451.638L508.14 449.793Z" fill="black"/>
</svg>
